HIERARCHY
ROOT Hips
{
	OFFSET 0.000000 0.000000 0.000000
	CHANNELS 6 Xposition Yposition Zposition Zrotation Yrotation Xrotation 
	JOINT Spine1
	{
		OFFSET -0.013727 5.003762 -0.053727
		CHANNELS 3 Zrotation Yrotation Xrotation
		JOINT Spine2
		{
			OFFSET -0.000000 7.125301 -0.029825
			CHANNELS 3 Zrotation Yrotation Xrotation
			JOINT Chest
			{
				OFFSET -0.000001 7.550064 -0.815971
				CHANNELS 3 Zrotation Yrotation Xrotation
				JOINT Neck1
				{
					OFFSET -0.181677 26.311296 -0.553348
					CHANNELS 3 Zrotation Yrotation Xrotation
					JOINT Neck2
					{
						OFFSET -0.000003 7.709399 2.302585
						CHANNELS 3 Zrotation Yrotation Xrotation
						JOINT Head
						{
							OFFSET -0.000005 6.128914 1.953709
							CHANNELS 3 Zrotation Yrotation Xrotation
							JOINT HeadEnd
							{
								OFFSET 0.003598 16.065399 -1.835379
								CHANNELS 3 Zrotation Yrotation Xrotation
								End Site
								{
									OFFSET 0.000000 0.000000 0.000000
								}
							}
							JOINT Jaw
							{
								OFFSET 0.002637 0.475592 3.094940
								CHANNELS 3 Zrotation Yrotation Xrotation
								End Site
								{
									OFFSET 0.000000 0.000000 0.000000
								}
							}
							JOINT LeftEye
							{
								OFFSET 3.206380 5.380207 7.586883
								CHANNELS 3 Zrotation Yrotation Xrotation
								End Site
								{
									OFFSET 0.000000 0.000000 0.000000
								}
							}
							JOINT RightEye
							{
								OFFSET -3.222440 5.361868 7.558233
								CHANNELS 3 Zrotation Yrotation Xrotation
								End Site
								{
									OFFSET 0.000000 0.000000 0.000000
								}
							}
						}
					}
				}
				JOINT LeftShoulder
				{
					OFFSET 1.621652 23.237165 5.113413
					CHANNELS 3 Zrotation Yrotation Xrotation
					JOINT LeftArm
					{
						OFFSET 14.919845 -0.000000 -5.502326
						CHANNELS 3 Zrotation Yrotation Xrotation
						JOINT LeftForeArm
						{
							OFFSET 28.739309 0.000002 -0.002588
							CHANNELS 3 Zrotation Yrotation Xrotation
							JOINT LeftHand
							{
								OFFSET 27.093979 -0.000002 0.002609
								CHANNELS 3 Zrotation Yrotation Xrotation
								JOINT LeftHandThumb1
								{
									OFFSET 2.276479 -1.392046 3.191413
									CHANNELS 3 Zrotation Yrotation Xrotation
									JOINT LeftHandThumb2
									{
										OFFSET 4.012842 -1.828126 1.641656
										CHANNELS 3 Zrotation Yrotation Xrotation
										JOINT LeftHandThumb3
										{
											OFFSET 2.798516 0.000001 -0.000003
											CHANNELS 3 Zrotation Yrotation Xrotation
											JOINT LeftHandThumbEnd
											{
												OFFSET 3.180791 -0.000002 0.000003
												CHANNELS 3 Zrotation Yrotation Xrotation
												End Site
												{
													OFFSET 0.000000 0.000000 0.000000
												}
											}
										}
									}
								}
								JOINT LeftHandIndex1
								{
									OFFSET 3.247554 -0.531998 2.296169
									CHANNELS 3 Zrotation Yrotation Xrotation
									JOINT LeftHandIndex2
									{
										OFFSET 6.364579 0.012062 0.178600
										CHANNELS 3 Zrotation Yrotation Xrotation
										JOINT LeftHandIndex3
										{
											OFFSET 3.662365 -0.000000 -0.000000
											CHANNELS 3 Zrotation Yrotation Xrotation
											JOINT LeftHandIndex4
											{
												OFFSET 2.329243 0.000003 0.000004
												CHANNELS 3 Zrotation Yrotation Xrotation
												JOINT LeftHandIndexEnd
												{
													OFFSET 2.759619 -0.180538 -0.113024
													CHANNELS 3 Zrotation Yrotation Xrotation
													End Site
													{
														OFFSET 0.000000 0.000000 0.000000
													}
												}
											}
										}
									}
								}
								JOINT LeftHandMiddle1
								{
									OFFSET 3.163500 0.240982 1.000332
									CHANNELS 3 Zrotation Yrotation Xrotation
									JOINT LeftHandMiddle2
									{
										OFFSET 6.190777 -0.259277 -1.002549
										CHANNELS 3 Zrotation Yrotation Xrotation
										JOINT LeftHandMiddle3
										{
											OFFSET 4.356522 -0.000006 0.000000
											CHANNELS 3 Zrotation Yrotation Xrotation
											JOINT LeftHandMiddle4
											{
												OFFSET 2.996875 -0.000006 0.000001
												CHANNELS 3 Zrotation Yrotation Xrotation
												JOINT LeftHandMiddleEnd
												{
													OFFSET 2.304294 -0.294571 -0.031739
													CHANNELS 3 Zrotation Yrotation Xrotation
													End Site
													{
														OFFSET 0.000000 0.000000 0.000000
													}
												}
											}
										}
									}
								}
								JOINT LeftHandRing1
								{
									OFFSET 2.882642 -0.053650 -0.322543
									CHANNELS 3 Zrotation Yrotation Xrotation
									JOINT LeftHandRing2
									{
										OFFSET 5.854542 -0.486204 -1.373841
										CHANNELS 3 Zrotation Yrotation Xrotation
										JOINT LeftHandRing3
										{
											OFFSET 4.350581 0.000000 0.000004
											CHANNELS 3 Zrotation Yrotation Xrotation
											JOINT LeftHandRing4
											{
												OFFSET 2.651324 0.000009 0.000004
												CHANNELS 3 Zrotation Yrotation Xrotation
												JOINT LeftHandRingEnd
												{
													OFFSET 1.936110 0.077685 -0.000070
													CHANNELS 3 Zrotation Yrotation Xrotation
													End Site
													{
														OFFSET 0.000000 0.000000 0.000000
													}
												}
											}
										}
									}
								}
								JOINT LeftHandPinky1
								{
									OFFSET 2.865500 -0.310004 -1.600378
									CHANNELS 3 Zrotation Yrotation Xrotation
									JOINT LeftHandPinky2
									{
										OFFSET 5.087853 -1.331142 -1.771231
										CHANNELS 3 Zrotation Yrotation Xrotation
										JOINT LeftHandPinky3
										{
											OFFSET 3.070975 0.000003 0.000000
											CHANNELS 3 Zrotation Yrotation Xrotation
											JOINT LeftHandPinky4
											{
												OFFSET 1.549668 0.000000 0.000000
												CHANNELS 3 Zrotation Yrotation Xrotation
												JOINT LeftHandPinkyEnd
												{
													OFFSET 1.944894 -0.157802 0.057219
													CHANNELS 3 Zrotation Yrotation Xrotation
													End Site
													{
														OFFSET 0.000000 0.000000 0.000000
													}
												}
											}
										}
									}
								}
							}
						}
					}
				}
				JOINT RightShoulder
				{
					OFFSET -1.380118 23.180307 5.214157
					CHANNELS 3 Zrotation Yrotation Xrotation
					JOINT RightArm
					{
						OFFSET -15.037197 0.000011 -5.545604
						CHANNELS 3 Zrotation Yrotation Xrotation
						JOINT RightForeArm
						{
							OFFSET -28.736639 0.000003 -0.002597
							CHANNELS 3 Zrotation Yrotation Xrotation
							JOINT RightHand
							{
								OFFSET -27.133617 -0.000001 0.002612
								CHANNELS 3 Zrotation Yrotation Xrotation
								JOINT RightHandThumb1
								{
									OFFSET -2.274037 -1.383990 3.163127
									CHANNELS 3 Zrotation Yrotation Xrotation
									JOINT RightHandThumb2
									{
										OFFSET -4.011428 -1.827468 1.640914
										CHANNELS 3 Zrotation Yrotation Xrotation
										JOINT RightHandThumb3
										{
											OFFSET -2.794935 -0.000003 -0.000003
											CHANNELS 3 Zrotation Yrotation Xrotation
											JOINT RightHandThumbEnd
											{
												OFFSET -3.183855 0.000003 0.000000
												CHANNELS 3 Zrotation Yrotation Xrotation
												End Site
												{
													OFFSET 0.000000 0.000000 0.000000
												}
											}
										}
									}
								}
								JOINT RightHandIndex1
								{
									OFFSET -3.253270 -0.520059 2.282866
									CHANNELS 3 Zrotation Yrotation Xrotation
									JOINT RightHandIndex2
									{
										OFFSET -6.341918 0.012472 0.178265
										CHANNELS 3 Zrotation Yrotation Xrotation
										JOINT RightHandIndex3
										{
											OFFSET -3.654875 -0.000008 -0.000001
											CHANNELS 3 Zrotation Yrotation Xrotation
											JOINT RightHandIndex4
											{
												OFFSET -2.327586 -0.000001 0.000001
												CHANNELS 3 Zrotation Yrotation Xrotation
												JOINT RightHandIndexEnd
												{
													OFFSET -2.761789 -0.180657 -0.113078
													CHANNELS 3 Zrotation Yrotation Xrotation
													End Site
													{
														OFFSET 0.000000 0.000000 0.000000
													}
												}
											}
										}
									}
								}
								JOINT RightHandMiddle1
								{
									OFFSET -3.168106 0.246594 1.001030
									CHANNELS 3 Zrotation Yrotation Xrotation
									JOINT RightHandMiddle2
									{
										OFFSET -6.180830 -0.258836 -1.000896
										CHANNELS 3 Zrotation Yrotation Xrotation
										JOINT RightHandMiddle3
										{
											OFFSET -4.348905 -0.000001 -0.000001
											CHANNELS 3 Zrotation Yrotation Xrotation
											JOINT RightHandMiddle4
											{
												OFFSET -3.000243 -0.000004 -0.000002
												CHANNELS 3 Zrotation Yrotation Xrotation
												JOINT RightHandMiddleEnd
												{
													OFFSET -2.302518 -0.294370 -0.031706
													CHANNELS 3 Zrotation Yrotation Xrotation
													End Site
													{
														OFFSET 0.000000 0.000000 0.000000
													}
												}
											}
										}
									}
								}
								JOINT RightHandRing1
								{
									OFFSET -2.885693 -0.067953 -0.308858
									CHANNELS 3 Zrotation Yrotation Xrotation
									JOINT RightHandRing2
									{
										OFFSET -5.854198 -0.486132 -1.373732
										CHANNELS 3 Zrotation Yrotation Xrotation
										JOINT RightHandRing3
										{
											OFFSET -4.338814 -0.000004 -0.000000
											CHANNELS 3 Zrotation Yrotation Xrotation
											JOINT RightHandRing4
											{
												OFFSET -2.654906 -0.000003 0.000004
												CHANNELS 3 Zrotation Yrotation Xrotation
												JOINT RightHandRingEnd
												{
													OFFSET -1.933570 0.077525 -0.000053
													CHANNELS 3 Zrotation Yrotation Xrotation
													End Site
													{
														OFFSET 0.000000 0.000000 0.000000
													}
												}
											}
										}
									}
								}
								JOINT RightHandPinky1
								{
									OFFSET -2.866430 -0.342798 -1.584145
									CHANNELS 3 Zrotation Yrotation Xrotation
									JOINT RightHandPinky2
									{
										OFFSET -5.091369 -1.332055 -1.772385
										CHANNELS 3 Zrotation Yrotation Xrotation
										JOINT RightHandPinky3
										{
											OFFSET -3.062666 -0.000007 0.000000
											CHANNELS 3 Zrotation Yrotation Xrotation
											JOINT RightHandPinky4
											{
												OFFSET -1.546527 0.000005 -0.000002
												CHANNELS 3 Zrotation Yrotation Xrotation
												JOINT RightHandPinkyEnd
												{
													OFFSET -1.945122 -0.157721 0.057211
													CHANNELS 3 Zrotation Yrotation Xrotation
													End Site
													{
														OFFSET 0.000000 0.000000 0.000000
													}
												}
											}
										}
									}
								}
							}
						}
					}
				}
			}
		}
	}
	JOINT LeftLeg
	{
		OFFSET 10.043214 -8.434526 2.595655
		CHANNELS 3 Zrotation Yrotation Xrotation
		JOINT LeftShin
		{
			OFFSET -0.000001 -43.221752 -0.802913
			CHANNELS 3 Zrotation Yrotation Xrotation
			JOINT LeftFoot
			{
				OFFSET 0.000001 -42.155094 -3.481523
				CHANNELS 3 Zrotation Yrotation Xrotation
				JOINT LeftToeBase
				{
					OFFSET -0.000000 -5.059475 13.231529
					CHANNELS 3 Zrotation Yrotation Xrotation
					JOINT LeftToeEnd
					{
						OFFSET -0.009607 -1.647615 6.513017
						CHANNELS 3 Zrotation Yrotation Xrotation
						End Site
						{
							OFFSET 0.000000 0.000000 0.000000
						}
					}
				}
			}
		}
	}
	JOINT RightLeg
	{
		OFFSET -10.047277 -8.295259 2.620317
		CHANNELS 3 Zrotation Yrotation Xrotation
		JOINT RightShin
		{
			OFFSET 0.000000 -43.362209 -0.805556
			CHANNELS 3 Zrotation Yrotation Xrotation
			JOINT RightFoot
			{
				OFFSET 0.000002 -42.117393 -3.478399
				CHANNELS 3 Zrotation Yrotation Xrotation
				JOINT RightToeBase
				{
					OFFSET -0.000001 -5.079609 13.284196
					CHANNELS 3 Zrotation Yrotation Xrotation
					JOINT RightToeEnd
					{
						OFFSET 0.009532 -1.634383 6.460591
						CHANNELS 3 Zrotation Yrotation Xrotation
						End Site
						{
							OFFSET 0.000000 0.000000 0.000000
						}
					}
				}
			}
		}
	}
}
MOTION
Frames: 4
Frame Time: 0.033333
8.338154 95.965210 4.672183 0.462416 -4.957669 2.689318 -0.607800 0.248003 0.796667 -0.478069 -0.573681 -4.542516 -1.774870 -2.619680 11.101061 -9.742287 9.551736 16.475147 2.242358 12.016864 -3.210341 -1.783102 13.522552 -7.971885 0.000076 -0.000021 0.000008 0.018875 -0.067707 -0.005646 0.701177 -3.792857 -10.652029 -0.670611 3.651597 -10.659741 3.533033 -12.998664 9.619396 -22.189886 -22.640202 -52.929695 178.889099 -53.338512 -179.635635 11.911645 -6.174913 -4.116321 -5.882103 9.861280 0.702591 -10.936860 -0.360575 7.156197 -0.000002 8.774814 -0.000000 -17.089224 17.483276 5.679524 -1.844032 2.498502 -2.507276 -10.163591 4.678941 4.621103 -20.975996 -0.000003 0.000001 -21.226255 2.451693 -3.593994 -0.000000 -0.000006 -0.000000 -1.362682 2.240796 -0.746323 -21.334894 0.584910 3.008320 -13.821198 -0.000002 0.000002 -23.887131 -0.249078 -0.839482 -60.240242 2.453164 -1.383658 -0.294024 1.679686 0.833256 -14.218190 0.093215 1.300580 -34.212006 -0.287563 0.967168 -20.033180 0.964536 1.212840 -0.000000 0.000000 0.000000 -3.440386 0.788233 0.501654 -15.928173 -3.167308 2.999704 -6.338817 -0.000002 0.000001 -18.123415 3.648177 -4.905662 -0.000004 -0.000001 -0.000002 -13.683251 7.986810 7.133717 65.183418 61.524994 4.260814 179.632187 40.310223 179.610031 -10.307809 0.406945 -2.546037 2.243538 -5.255031 -3.180155 14.282873 -0.826594 6.952496 -0.000003 -12.690586 0.000002 15.903671 -17.555779 2.711109 1.665665 -1.955919 -2.878297 4.727793 -4.170582 4.993920 11.020510 0.000003 -0.000002 12.109028 -3.735709 -2.866779 -0.000001 -0.000000 0.000000 1.291983 -1.928547 -1.498087 14.800113 0.567468 3.865603 14.242550 -1.341733 -6.660648 19.631935 0.143927 -0.648245 49.437134 -0.757854 -6.037447 0.353028 -1.511149 -0.031941 20.222765 3.684304 2.316627 18.787245 0.000004 -0.000001 10.751610 -0.479867 1.397904 -0.000001 0.000000 0.000000 3.273804 0.305947 -0.580110 21.486788 11.830361 2.266131 8.162916 0.000002 -0.000000 18.399052 -3.798980 -4.940566 0.000003 -0.000002 -0.000001 8.425097 16.071314 -25.788261 -0.151904 -0.450531 26.104876 -11.946478 2.260755 -0.396933 1.617254 -1.942740 0.446501 -0.000000 -0.000000 0.000002 -14.947497 -4.387231 -10.796558 0.181159 0.627685 24.141077 14.047535 4.522790 -13.450814 -1.431050 0.934429 -0.871073 -0.000000 -0.000000 -0.000001 
8.550823 95.693497 4.918171 0.544657 -4.659880 2.451814 -0.602274 0.262889 0.968077 -0.465205 -0.493387 -4.606352 -1.674761 -2.625850 11.305064 -9.702336 9.618729 16.533466 2.221569 12.018396 -3.251327 -1.934091 13.199975 -8.264783 0.000076 -0.000022 0.000005 -0.003532 -0.025178 -0.037472 0.682156 -3.754483 -10.698449 -0.696113 3.711433 -10.713479 3.744811 -13.177948 9.857769 -22.900557 -23.224632 -53.178028 178.798340 -53.517735 -179.479187 11.812771 -6.246938 -4.478450 -5.882098 9.861279 0.702593 -10.936859 -0.360573 7.156198 -0.000001 8.774814 0.000001 -17.102947 17.491257 5.566751 -1.844031 2.498503 -2.507276 -10.163589 4.678940 4.621105 -20.975992 -0.000002 0.000003 -21.226250 2.451696 -3.593994 -0.000000 -0.000007 -0.000000 -1.362681 2.240796 -0.746323 -21.334887 0.584909 3.008321 -13.821195 -0.000001 0.000002 -23.887129 -0.249077 -0.839482 -60.266548 2.453710 -1.271398 -0.294026 1.679686 0.833256 -14.218194 0.093214 1.300581 -34.212006 -0.287562 0.967173 -20.033182 0.964536 1.212842 0.000000 -0.000000 0.000000 -3.440384 0.788233 0.501656 -15.928167 -3.167306 2.999704 -6.338817 -0.000002 0.000001 -18.123413 3.648178 -4.905661 -0.000004 -0.000002 -0.000002 -13.724327 8.046071 7.409857 65.847122 61.404560 4.688942 179.489822 40.268623 179.709366 -10.168158 0.628109 -3.094131 2.243540 -5.255032 -3.180155 14.282878 -0.826593 6.952496 -0.000001 -12.690590 0.000000 16.127989 -17.708336 2.686803 1.665665 -1.955920 -2.878297 4.727794 -4.170583 4.993919 11.020509 0.000003 0.000001 12.109034 -3.735710 -2.866780 0.000000 -0.000001 0.000001 1.291985 -1.928548 -1.498088 14.800111 0.567467 3.865604 14.242553 -1.341734 -6.660648 19.631939 0.143925 -0.648243 49.601475 -0.771313 -6.015824 0.353030 -1.511149 -0.031940 20.222767 3.684305 2.316629 18.787243 0.000004 0.000001 10.751610 -0.479868 1.397904 0.000000 -0.000001 -0.000000 3.273806 0.305946 -0.580110 21.486792 11.830361 2.266131 8.162915 0.000003 0.000000 18.399052 -3.798982 -4.940567 0.000003 0.000000 -0.000000 8.236791 16.203659 -26.225389 -0.190950 -0.375117 27.697353 -11.844966 1.646782 -1.353398 1.615194 -1.933789 0.515850 0.000000 -0.000000 0.000002 -15.252227 -4.615045 -10.645663 0.208648 0.728213 24.916756 14.560430 4.487685 -13.803551 -1.409618 0.960993 -0.725500 0.000000 0.000000 -0.000001 
8.664385 95.428917 5.184855 0.580868 -4.293829 2.191267 -0.591704 0.279891 1.076210 -0.454330 -0.517500 -4.579693 -1.672848 -2.666294 11.418329 -9.574911 9.503404 16.650116 2.185874 12.021858 -3.297185 -2.051967 13.096274 -8.560309 0.000076 -0.000021 0.000005 -0.004441 -0.012735 -0.035031 0.679373 -3.745137 -10.707598 -0.693864 3.720192 -10.726167 3.989538 -13.359529 9.831384 -23.416576 -23.830276 -53.489933 178.846542 -53.814079 -179.317245 11.790566 -6.382719 -4.590469 -5.882099 9.861278 0.702592 -10.936860 -0.360575 7.156198 -0.000001 8.774813 -0.000002 -17.014721 17.478931 5.600194 -1.844030 2.498502 -2.507276 -10.163589 4.678938 4.621103 -20.975994 -0.000003 0.000002 -21.226250 2.451694 -3.593994 0.000000 -0.000008 -0.000000 -1.362680 2.240796 -0.746322 -21.334892 0.584909 3.008322 -13.821197 -0.000001 0.000002 -23.887129 -0.249078 -0.839480 -60.278965 2.474601 -1.332241 -0.294026 1.679686 0.833255 -14.218190 0.093215 1.300581 -34.211998 -0.287562 0.967170 -20.033178 0.964536 1.212842 -0.000000 0.000001 0.000000 -3.440385 0.788232 0.501655 -15.928165 -3.167306 2.999704 -6.338817 -0.000001 0.000001 -18.123413 3.648176 -4.905661 -0.000005 -0.000003 -0.000002 -13.805511 8.005149 7.420620 66.363647 61.301792 4.769406 179.452835 40.287579 179.761154 -10.135686 0.806988 -3.322805 2.243540 -5.255032 -3.180155 14.282879 -0.826593 6.952496 -0.000002 -12.690588 -0.000001 15.977273 -17.746702 2.705595 1.665662 -1.955919 -2.878295 4.727793 -4.170582 4.993918 11.020512 0.000003 -0.000001 12.109033 -3.735708 -2.866779 0.000000 -0.000000 -0.000000 1.291982 -1.928547 -1.498088 14.800113 0.567468 3.865603 14.242554 -1.341734 -6.660649 19.631939 0.143926 -0.648243 49.604179 -0.775394 -6.047684 0.353029 -1.511149 -0.031941 20.222769 3.684306 2.316627 18.787249 0.000007 0.000000 10.751611 -0.479865 1.397904 0.000000 -0.000001 -0.000000 3.273805 0.305947 -0.580112 21.486794 11.830362 2.266130 8.162914 0.000003 -0.000000 18.399052 -3.798976 -4.940567 0.000002 0.000000 -0.000001 8.156504 16.089254 -26.636477 -0.200914 -0.346552 29.136639 -11.790121 1.181377 -2.161963 1.611312 -1.911795 0.614363 0.000000 0.000000 0.000002 -15.475874 -4.965892 -10.442134 0.222807 0.723118 25.748058 14.799318 4.788453 -14.474154 -1.411517 0.974109 -0.626318 -0.000000 -0.000000 -0.000001 
8.666966 95.184853 5.440145 0.543243 -3.895107 1.938185 -0.605955 0.281614 1.141847 -0.463023 -0.554443 -4.550999 -1.641842 -2.729914 11.489611 -9.378323 9.317104 16.837883 2.182313 11.963268 -3.319895 -2.171576 13.053365 -8.870747 0.000077 -0.000021 0.000006 -0.003125 -0.006203 -0.031472 0.684760 -3.739784 -10.703399 -0.699621 3.724952 -10.722744 4.335769 -13.610929 9.740384 -23.751921 -24.349302 -53.940338 179.024628 -54.230778 -179.258469 11.734191 -6.481626 -4.679292 -5.882100 9.861276 0.702589 -10.936861 -0.360574 7.156198 0.000001 8.774811 -0.000002 -16.942194 17.482492 5.665098 -1.844031 2.498502 -2.507277 -10.163589 4.678940 4.621105 -20.975998 -0.000006 0.000003 -21.226255 2.451692 -3.593992 0.000000 -0.000007 -0.000000 -1.362681 2.240796 -0.746322 -21.334892 0.584908 3.008321 -13.821197 -0.000002 0.000002 -23.887133 -0.249080 -0.839480 -60.274216 2.481706 -1.353939 -0.294024 1.679685 0.833256 -14.218195 0.093213 1.300579 -34.212006 -0.287564 0.967172 -20.033180 0.964536 1.212843 -0.000000 0.000002 -0.000000 -3.440384 0.788233 0.501655 -15.928165 -3.167306 2.999705 -6.338816 -0.000002 0.000001 -18.123413 3.648175 -4.905660 -0.000004 -0.000001 -0.000002 -13.892106 7.880343 7.439887 66.536819 61.343647 4.441833 179.476364 40.226887 179.844452 -10.176874 0.851431 -3.719271 2.243540 -5.255031 -3.180155 14.282875 -0.826593 6.952494 -0.000003 -12.690587 -0.000000 15.897064 -17.691044 2.699003 1.665665 -1.955919 -2.878297 4.727794 -4.170582 4.993918 11.020510 0.000004 -0.000001 12.109031 -3.735708 -2.866780 0.000000 -0.000000 0.000001 1.291985 -1.928547 -1.498088 14.800117 0.567467 3.865602 14.242554 -1.341734 -6.660648 19.631939 0.143926 -0.648244 49.655975 -0.762694 -6.056687 0.353029 -1.511149 -0.031941 20.222773 3.684304 2.316626 18.787249 0.000005 -0.000001 10.751610 -0.479868 1.397904 0.000000 -0.000001 0.000000 3.273805 0.305946 -0.580109 21.486794 11.830360 2.266130 8.162916 0.000002 -0.000000 18.399052 -3.798979 -4.940566 0.000003 0.000000 -0.000000 8.245180 15.933645 -26.891489 -0.197650 -0.338337 30.274939 -11.818014 0.763427 -2.869361 1.609175 -1.897341 0.659715 -0.000000 0.000000 0.000002 -15.539277 -5.280357 -10.195766 0.244289 0.722848 26.509880 14.917336 4.988939 -15.165592 -1.415528 0.981944 -0.538965 0.000000 0.000000 -0.000001 
